<?xml version="1.0" standalone="no"?>
<!DOCTYPE svg PUBLIC "-//W3C//DTD SVG 20010904//EN"
 "http://www.w3.org/TR/2001/REC-SVG-20010904/DTD/svg10.dtd">
<svg version="1.0" xmlns="http://www.w3.org/2000/svg"
 width="1216.000000pt" height="1216.000000pt" viewBox="0 0 1216.000000 1216.000000"
 preserveAspectRatio="xMidYMid meet">
<metadata>
Created by potrace 1.14, written by Peter Selinger 2001-2017
</metadata>
<g transform="translate(0.000000,1216.000000) scale(0.100000,-0.100000)"
fill="#000000" stroke="none">
<path d="M3998 10370 c-7 -9 -14 -23 -16 -31 -2 -8 -10 -18 -18 -22 -8 -4 -14
-12 -14 -18 0 -8 -104 -166 -130 -196 -5 -7 -10 -14 -10 -17 0 -3 -20 -34 -45
-69 -25 -36 -45 -69 -45 -75 0 -6 -4 -12 -8 -14 -11 -4 -152 -215 -152 -227 0
-5 -3 -11 -7 -13 -12 -5 -153 -215 -153 -227 0 -6 -4 -11 -10 -11 -5 0 -17
-16 -26 -35 -9 -19 -20 -35 -25 -35 -5 0 -9 -7 -9 -15 0 -8 -4 -15 -10 -15 -5
0 -10 -7 -10 -15 0 -8 -4 -15 -10 -15 -5 0 -10 -6 -10 -14 0 -7 -13 -29 -30
-47 -16 -19 -30 -40 -30 -46 0 -7 -4 -13 -10 -13 -5 0 -10 -4 -10 -9 0 -9 -83
-136 -108 -163 -8 -10 -11 -18 -6 -18 5 0 4 -4 -2 -8 -6 -4 -39 -50 -74 -102
-34 -52 -69 -103 -77 -112 -9 -10 -12 -18 -7 -18 5 0 4 -4 -2 -8 -15 -10 -74
-99 -74 -111 0 -6 -4 -11 -8 -11 -4 0 -21 -22 -37 -50 -17 -27 -33 -50 -37
-50 -5 0 -8 -4 -8 -8 0 -10 -124 -197 -148 -224 -8 -10 -11 -18 -6 -18 5 0 4
-4 -2 -8 -6 -4 -39 -50 -74 -102 -34 -52 -69 -103 -77 -112 -9 -10 -12 -18 -7
-18 5 0 4 -4 -2 -8 -6 -4 -39 -50 -74 -102 -34 -52 -69 -103 -77 -112 -9 -10
-13 -18 -9 -18 4 0 -2 -9 -12 -20 -10 -11 -25 -33 -33 -48 -8 -15 -17 -29 -20
-32 -4 -3 -28 -39 -55 -80 -26 -41 -51 -76 -56 -78 -4 -2 -8 -8 -8 -14 0 -5
-11 -24 -25 -42 -14 -18 -25 -38 -25 -43 0 -6 -7 -13 -15 -17 -8 -3 -15 -10
-15 -15 0 -9 -123 -197 -150 -228 -5 -7 -10 -14 -10 -17 0 -6 -132 -202 -150
-223 -5 -7 -10 -15 -10 -18 0 -9 -113 -170 -122 -173 -5 -2 -6 -7 -3 -12 2 -4
-7 -20 -20 -36 -14 -16 -25 -35 -25 -41 0 -7 -4 -13 -10 -13 -5 0 -10 -6 -10
-14 0 -8 -4 -16 -8 -18 -5 -1 -31 -37 -58 -78 -27 -41 -52 -76 -56 -78 -5 -2
-8 -8 -8 -13 0 -8 -125 -197 -150 -226 -5 -7 -10 -15 -10 -19 0 -4 -12 -23
-27 -43 -15 -20 -27 -37 -25 -39 1 -1 -3 -9 -11 -16 -8 -8 -29 -38 -48 -68
-18 -29 -37 -54 -41 -56 -5 -2 -8 -8 -8 -14 0 -6 -11 -26 -25 -44 -14 -18 -25
-35 -25 -39 0 -3 -8 -15 -18 -26 -11 -10 -25 -32 -33 -47 -8 -15 -16 -29 -19
-32 -11 -11 -110 -159 -110 -165 0 -3 -11 -18 -25 -33 -14 -15 -25 -30 -25
-35 0 -10 -82 -131 -92 -135 -5 -2 -8 -7 -8 -12 0 -11 -82 -134 -92 -138 -5
-2 -8 -8 -8 -14 0 -6 -11 -26 -25 -44 -14 -18 -25 -37 -25 -43 0 -6 -3 -11 -7
-11 -5 0 -26 -28 -48 -63 -22 -34 -43 -63 -47 -65 -5 -2 -8 -8 -8 -14 0 -6
-11 -26 -25 -44 -14 -18 -25 -37 -25 -42 0 -6 -4 -12 -8 -14 -12 -4 -72 -95
-72 -107 0 -6 -4 -11 -8 -11 -7 0 -42 -52 -42 -62 0 -7 5118 -4 5124 3 8 8
276 411 276 415 0 2 7 12 15 21 27 34 445 665 445 673 0 5 3 10 8 12 11 4 92
126 92 138 0 5 4 10 8 10 5 0 19 19 32 42 13 23 29 49 36 57 27 33 444 664
444 672 0 5 5 9 10 9 6 0 14 8 18 18 10 26 204 316 216 324 6 4 7 8 3 8 -4 0
1 10 13 22 11 12 20 28 20 35 0 7 4 13 8 13 5 0 17 16 28 35 10 19 22 35 26
35 5 0 8 5 8 10 0 12 141 223 152 228 5 2 8 8 8 12 0 11 162 254 172 258 5 2
8 8 8 13 0 11 122 193 132 197 5 2 8 8 8 13 0 5 38 65 85 134 47 69 85 130 85
134 0 5 4 11 8 13 4 2 31 39 60 83 29 44 59 89 67 100 71 102 345 519 345 525
0 5 3 10 8 12 4 2 88 125 187 273 98 149 183 272 187 273 4 2 8 10 8 17 0 8 6
20 13 27 7 7 75 108 152 223 76 116 143 212 147 213 4 2 8 8 8 13 0 5 20 38
45 73 25 36 45 69 45 75 0 5 3 11 8 13 11 5 72 95 72 107 0 7 7 14 15 17 8 4
15 12 15 20 0 8 5 14 11 14 5 0 8 4 5 8 -3 5 -1157 9 -2565 9 -2368 0 -2560
-2 -2573 -17z"/>
<path d="M7961 7668 c-10 -3 -33 -30 -52 -60 -18 -29 -36 -55 -39 -58 -10 -9
-31 -45 -36 -62 -4 -10 -10 -18 -14 -18 -4 0 -15 -16 -26 -35 -10 -19 -21 -35
-25 -35 -3 0 -11 -11 -17 -25 -7 -14 -16 -31 -22 -38 -9 -11 -101 -147 -125
-186 -6 -9 -24 -36 -40 -60 -17 -24 -34 -51 -40 -60 -37 -60 -131 -197 -137
-199 -5 -2 -8 -8 -8 -12 0 -8 -66 -109 -89 -136 -5 -7 -7 -15 -4 -18 4 -3 2
-6 -4 -6 -5 0 -18 -16 -29 -35 -10 -19 -22 -35 -26 -35 -5 0 -8 -5 -8 -11 0
-6 -8 -21 -17 -34 -20 -25 -29 -38 -75 -110 -18 -27 -36 -54 -41 -60 -4 -5
-26 -39 -50 -75 -23 -36 -45 -66 -49 -68 -5 -2 -8 -8 -8 -14 0 -5 -11 -24 -25
-42 -14 -18 -25 -38 -25 -44 0 -7 -3 -12 -7 -12 -5 0 -26 -28 -48 -63 -22 -34
-43 -63 -47 -65 -5 -2 -8 -8 -8 -13 0 -7 -102 -164 -133 -204 -4 -5 -26 -39
-50 -75 -23 -36 -45 -66 -49 -68 -5 -2 -8 -8 -8 -14 0 -5 -8 -20 -17 -33 -20
-26 -30 -40 -75 -110 -18 -27 -35 -52 -38 -55 -4 -3 -17 -24 -30 -47 -13 -24
-27 -43 -32 -43 -4 0 -8 -7 -8 -15 0 -8 -5 -15 -11 -15 -5 0 -8 -4 -5 -9 4 -5
3 -11 -1 -13 -5 -1 -26 -30 -48 -63 -22 -33 -43 -61 -47 -63 -5 -2 -8 -10 -8
-18 0 -8 -4 -14 -10 -14 -5 0 -10 -4 -10 -10 0 -8 -104 -167 -128 -195 -5 -6
-11 -15 -13 -20 -8 -20 -144 -220 -151 -223 -5 -2 -8 -8 -8 -12 0 -7 -101
-163 -133 -205 -4 -5 -41 -62 -83 -125 -42 -63 -78 -116 -79 -118 -8 -9 -226
-6 -229 3 -3 7 -5 7 -5 0 -1 -7 -194 -9 -563 -7 -310 1 -578 0 -595 -3 -18 -3
-33 -12 -33 -19 0 -7 -9 -22 -20 -34 -11 -12 -20 -26 -20 -32 0 -5 -4 -10 -9
-10 -5 0 -11 -8 -15 -17 -6 -20 -27 -55 -37 -63 -4 -3 -61 -88 -128 -190 -67
-102 -129 -194 -137 -205 -8 -11 -39 -58 -69 -105 -30 -47 -58 -89 -63 -95 -4
-5 -30 -44 -57 -85 -27 -41 -53 -79 -57 -85 -22 -26 -178 -268 -178 -276 0 -5
-5 -9 -10 -9 -6 0 -16 -12 -23 -27 -6 -16 -14 -30 -17 -33 -14 -14 -210 -311
-210 -319 0 -5 -4 -11 -9 -13 -4 -1 -66 -91 -137 -198 -70 -107 -132 -196
-136 -198 -4 -2 -8 -10 -8 -18 0 -8 -4 -14 -10 -14 -5 0 -10 -4 -10 -9 0 -5
-18 -37 -40 -70 -22 -33 -40 -61 -40 -63 0 -2 1207 -2 2681 -1 2678 2 2681 2
2700 22 11 11 19 25 19 30 0 5 6 16 13 23 14 14 309 456 316 473 2 5 7 12 11
15 3 3 73 106 155 230 82 124 153 227 157 228 4 2 8 8 8 13 0 5 34 59 75 120
41 61 75 114 75 119 0 5 4 10 8 12 11 4 132 185 132 197 0 5 3 11 8 13 10 4
112 156 112 167 0 5 3 11 8 13 10 5 52 66 52 77 0 5 4 11 8 13 5 2 36 46 70
98 35 52 69 104 76 115 87 125 146 216 146 225 0 5 5 10 10 10 6 0 14 8 18 18
9 25 305 466 315 470 4 2 7 8 7 14 0 12 61 102 72 106 4 2 8 7 8 12 0 7 56 97
78 125 11 14 305 453 317 474 34 57 311 467 317 469 4 2 8 7 8 12 0 11 222
344 232 348 4 2 8 7 8 12 0 6 447 684 504 765 50 70 406 609 406 614 0 8
-3926 8 -3949 -1z"/>
</g>
</svg>
